{"title":"Il Casanova Di Federico Fellini [1976] BRRip XviD - CODY","uid":7861891,"size":1402622976,"categoryP":"video","categoryS":"movies","magnet":"?xt=urn:btih:3d6fe49fe5f592e74ef196d5728fe6f94c521c20&amp;dn=Il+Casanova+Di+Federico+Fellini+%5B1976%5D+BRRip+XviD+-+CODY&amp;tr=udp%3A%2F%2Ftracker.openbittorrent.com%3A80&amp;tr=udp%3A%2F%2Fopen.demonii.com%3A1337&amp;tr=udp%3A%2F%2Ftracker.coppersurfer.tk%3A6969&amp;tr=udp%3A%2F%2Fexodus.desync.com%3A6969","seeders":5,"leechers":0,"uploader":"CODYBOSS1969","files":13,"time":1353952526,"description":"General\nComplete name                            : Il Casanova Di Federico Fellini [1976] BRRip XviD - CODY.avi\nFormat                                   : AVI\nFormat/Info                              : Audio Video Interleave\nFile size                                : 1.29 GiB\nDuration                                 : 2h 34mn\nOverall bit rate                         : 1 202 Kbps\nWriting application                      : VirtualDubMod 1.5.10.3 | www.virtualdub-fr.org || (build 2550/release)\nWriting library                          : VirtualDubMod build 2550/release\n\nVideo\nID                                       : 0\nFormat                                   : MPEG-4 Visual\nFormat profile                           : Advanced Simple@L5\nFormat settings, BVOP                    : No\nFormat settings, QPel                    : No\nFormat settings, GMC                     : No warppoints\nFormat settings, Matrix                  : Default (H.263)\nCodec ID                                 : XVID\nCodec ID/Hint                            : XviD\nDuration                                 : 2h 34mn\nBit rate                                 : 1 065 Kbps\nWidth                                    : 720 pixels\nHeight                                   : 392 pixels\nDisplay aspect ratio                     : 16:9\nFrame rate                               : 24.000 fps\nColor space                              : YUV\nChroma subsampling                       : 4:2:0\nBit depth                                : 8 bits\nScan type                                : Progressive\nCompression mode                         : Lossy\nBits/(Pixel*Frame)                       : 0.157\nStream size                              : 1.15 GiB (89%)\nWriting library                          : XviD 65\n\nAudio\nID                                       : 1\nFormat                                   : MPEG Audio\nFormat version                           : Version 1\nFormat profile                           : Layer 3\nCodec ID                                 : 55\nCodec ID/Hint                            : MP3\nDuration                                 : 2h 34mn\nBit rate mode                            : Constant\nBit rate                                 : 128 Kbps\nChannel(s)                               : 1 channel\nSampling rate                            : 48.0 KHz\nCompression mode                         : Lossy\nStream size                              : 141 MiB (11%)\nAlignment                                : Aligned on interleaves\nInterleave, duration                     : 42 ms (1.00 video frame)\nInterleave, preload duration             : 504 ms\nWriting library                          : LAME3.99r\nEncoding settings                        : -m m -V 4 -q 2 -lowpass 20.5 -b 128\n\nAudio language                           : Italian [mostly], French, German\n                                           English, Czech, Latin, Hungarian\n\nIMDB link:                                &lt;a href=&quot; http://www.imdb.com/title/tt0074291/&quot; rel=&quot;nofollow&quot; target=&quot;_NEW&quot;&gt; http://www.imdb.com/title/tt0074291/&lt;/a&gt;\n\nSubtitles included                       : English[VobSub], Italian[Vobsub], \n                                           French[Vobsub], Romanian[.srt=default]\n\nPlease seed at least 1,5:1. This way this torrent has a chance to survive !\n\nThanks. Enjoy !\t\t","torrent":{"xt":"urn:btih:3d6fe49fe5f592e74ef196d5728fe6f94c521c20","amp;dn":"Il+Casanova+Di+Federico+Fellini+%5B1976%5D+BRRip+XviD+-+CODY","amp;tr":["udp%3A%2F%2Ftracker.openbittorrent.com%3A80","udp%3A%2F%2Fopen.demonii.com%3A1337","udp%3A%2F%2Ftracker.coppersurfer.tk%3A6969","udp%3A%2F%2Fexodus.desync.com%3A6969"],"infoHash":"3d6fe49fe5f592e74ef196d5728fe6f94c521c20","infoHashBuffer":{"type":"Buffer","data":[61,111,228,159,229,245,146,231,78,241,150,213,114,143,230,249,76,82,28,32]},"announce":[],"urlList":[]}}